<?xml version="1.0" standalone="no"?>
<!DOCTYPE svg PUBLIC "-//W3C//DTD SVG 20010904//EN"
 "http://www.w3.org/TR/2001/REC-SVG-20010904/DTD/svg10.dtd">
<svg version="1.0" xmlns="http://www.w3.org/2000/svg"
 width="750.000000pt" height="750.000000pt" viewBox="0 0 750.000000 750.000000"
 preserveAspectRatio="xMidYMid meet">
<metadata>
Created by potrace 1.11, written by Peter Selinger 2001-2013
</metadata>
<g transform="translate(0.000000,750.000000) scale(0.100000,-0.100000)"
fill="#000000" stroke="none">
<path d="M3535 7494 c-22 -2 -92 -9 -155 -15 -1071 -100 -2084 -699 -2705
-1599 -852 -1234 -886 -2853 -88 -4128 581 -929 1551 -1558 2643 -1716 391
-57 868 -44 1250 34 918 186 1715 688 2274 1434 480 639 745 1435 746 2237 1
1253 -616 2416 -1652 3116 -501 338 -1054 543 -1673 619 -122 15 -550 27 -640
18z m-1519 -2634 c381 -34 582 -238 543 -553 -17 -142 -120 -287 -252 -357
-26 -14 -47 -28 -47 -32 0 -4 19 -12 43 -18 200 -51 338 -178 388 -355 17 -63
17 -222 0 -295 -66 -271 -311 -452 -663 -490 -55 -5 -324 -10 -618 -10 l-520
0 0 1060 0 1060 508 0 c279 0 557 -5 618 -10z m1484 -420 l0 -390 403 2 402 3
3 388 2 387 270 0 270 0 0 -1060 0 -1060 -270 0 -270 0 -2 468 -3 467 -402 3
-403 2 0 -470 0 -470 -275 0 -275 0 0 1060 0 1060 275 0 275 0 0 -390z m3230
205 l0 -185 -172 -2 -173 -3 0 -685 0 -685 173 -3 172 -2 0 -185 0 -185 -620
0 -620 0 0 185 0 185 170 0 170 0 0 690 0 690 -170 0 -170 0 0 185 0 185 620
0 620 0 0 -185z"/>
<path d="M1440 4254 l0 -227 183 6 c213 7 268 20 325 75 76 73 78 229 3 303
-54 54 -91 62 -313 66 l-198 5 0 -228z"/>
<path d="M1440 3404 l0 -266 238 4 c214 3 242 6 290 25 111 45 161 109 170
218 6 78 -17 161 -55 197 -70 67 -179 88 -470 88 l-173 0 0 -266z"/>
</g>
</svg>
